<svg width="23" height="23" viewBox="0 0 23 23" fill="none" xmlns="http://www.w3.org/2000/svg">
    <g id="Arrow">
        <path id="Vector" d="M0.555729 9.7962C0.199878 10.2481 0 10.8606 0 11.4992C0 12.1378 0.199878 12.7503 0.555729 13.2022L7.72087 22.2939C8.07735 22.746 8.56083 23 9.06497 23C9.5691 23 10.0526 22.746 10.4091 22.2939C10.7655 21.8418 10.9658 21.2287 10.9658 20.5893C10.9658 19.95 10.7655 19.3368 10.4091 18.8847L6.48699 13.9091L21.0998 13.9091C21.6037 13.9091 22.0871 13.6552 22.4434 13.2033C22.7998 12.7513 23 12.1383 23 11.4992C23 10.8601 22.7998 10.2471 22.4434 9.79514C22.0871 9.3432 21.6037 9.0893 21.0998 9.0893L6.48699 9.0893L10.4091 4.11527C10.5856 3.89142 10.7256 3.62567 10.8211 3.33319C10.9166 3.04072 10.9658 2.72724 10.9658 2.41067C10.9658 2.0941 10.9166 1.78062 10.8211 1.48815C10.7256 1.19567 10.5856 0.929918 10.4091 0.706067C10.2326 0.482215 10.023 0.304649 9.79239 0.183501C9.56177 0.0623542 9.31459 -8.34465e-07 9.06497 -8.34465e-07C8.81535 -8.34465e-07 8.56817 0.0623542 8.33755 0.183501C8.10693 0.304649 7.89738 0.482215 7.72087 0.706067L0.555729 9.7962Z" fill="#EDF2F4"/>
    </g>
</svg>
